<svg width="22" height="22" viewBox="0 0 22 22" fill="none" xmlns="http://www.w3.org/2000/svg">
<path fill-rule="evenodd" clip-rule="evenodd" d="M20.5053 19.264L19.0641 20.7055C18.8068 20.9625 18.0533 21.1228 18.0291 21.1228C13.4697 21.1625 9.07969 19.3716 5.85415 16.1458C2.61979 12.9096 0.826797 8.50395 0.874949 3.9292C0.874949 3.9292 1.03996 3.19527 1.29704 2.94064L2.7382 1.49926C3.26558 0.96944 4.27863 0.730015 4.9883 0.967437L5.29146 1.06856C5.99906 1.30576 6.74197 2.08814 6.93747 2.80894L7.66243 5.4697C7.85793 6.19257 7.59424 7.22098 7.06701 7.74836L6.10471 8.71081C7.0495 12.2085 9.79389 14.9534 13.2922 15.9005L14.2541 14.9378C14.7839 14.408 15.812 14.1445 16.5333 14.3397L19.1937 15.0673C19.9146 15.2654 20.6969 16.0036 20.934 16.711L21.0351 17.0185C21.2702 17.7262 21.0326 18.739 20.5053 19.264Z" fill="#60CE78"/>
</svg>
